<?xml version="1.0" encoding="UTF-8"?>
<svg width="29px" height="29px" viewBox="0 0 29 29" version="1.1" xmlns="http://www.w3.org/2000/svg" xmlns:xlink="http://www.w3.org/1999/xlink">
    <!-- Generator: Sketch 47 (45396) - http://www.bohemiancoding.com/sketch -->
    <title>Shape</title>
    <desc>Created with Sketch.</desc>
    <defs></defs>
    <g id="Page-1" stroke="none" stroke-width="1" fill="none" fill-rule="evenodd">
        <g id="HOME-PAGE" transform="translate(-1326.000000, -36.000000)" fill-rule="nonzero" fill="#D0021B">
            <g id="NAV-BAR">
                <g id="Shopping-icon" transform="translate(1326.000000, 36.000000)">
                    <path d="M19.5632253,1.10005978 C17.9280013,0.445970182 16.1441206,0.0891940364 14.2710458,0.0891940364 C7.04632887,0.0891940364 1.07032844,5.50029891 0.208119418,12.5168964 C0.148656727,13.081792 0.0891940364,13.6764189 0.0891940364,14.2710458 C0.0891940364,22.0903897 6.45170196,28.4528976 14.2710458,28.4528976 C22.0903897,28.4528976 28.4528976,22.120121 28.4528976,14.2710458 C28.4528976,8.29504538 24.7662108,3.21098531 19.5632253,1.10005978 Z M12.8439412,22.0011956 L12.7844785,22.0011956 C12.4871651,22.0011956 12.219583,21.7633449 12.219583,21.4363001 C12.219583,21.1092553 12.4574337,20.8714045 12.7844785,20.8714045 L12.8439412,20.8714045 C13.1412547,20.8714045 13.4088368,21.1092553 13.4088368,21.4363001 C13.4088368,21.7633449 13.170986,22.0011956 12.8439412,22.0011956 Z M17.1549863,22.0011956 L17.0955236,22.0011956 C16.7982102,22.0011956 16.5306281,21.7633449 16.5306281,21.4363001 C16.5306281,21.1092553 16.7684788,20.8714045 17.0955236,20.8714045 L17.1549863,20.8714045 C17.4522998,20.8714045 17.7198819,21.1092553 17.7198819,21.4363001 C17.7198819,21.7633449 17.4820311,22.0011956 17.1549863,22.0011956 Z M21.0795239,12.308777 L19.0875238,17.6604192 C18.9983297,17.8685386 18.7902103,18.0171953 18.5820909,18.0171953 L12.8736726,18.0171953 L12.8736726,19.2956432 L18.3145088,19.2956432 C18.6118223,19.2956432 18.8794044,19.533494 18.8794044,19.8605388 C18.8794044,20.1578522 18.6415536,20.4254343 18.3145088,20.4254343 L12.308777,20.4254343 C12.0114636,20.4254343 11.7438815,20.1875836 11.7438815,19.8605388 L11.7438815,17.4522998 C11.7438815,17.4225684 11.7438815,17.3928371 11.7438815,17.3928371 L9.45456786,10.1383888 L7.01659753,8.77074691 C6.74901542,8.62209018 6.65982138,8.29504538 6.80847811,8.02746327 C6.95713484,7.75988117 7.28417964,7.67068713 7.55176175,7.81934386 L10.1978515,9.30591113 C10.3167769,9.36537382 10.4059709,9.4842992 10.4654336,9.63295593 L11.0897919,11.5952247 C11.1195232,11.5952247 11.1789859,11.5654934 11.2384486,11.5654934 L20.5740911,11.5654934 C20.7524791,11.5654934 20.9308672,11.6546874 21.0200612,11.8033441 C21.1092553,11.9520009 21.1389866,12.1601203 21.0795239,12.308777 Z M12.7547472,16.9171356 L18.1658521,16.9171356 L19.7416134,12.6655532 L11.3871053,12.6655532 L12.7547472,16.9171356 Z" id="Shape"></path>
                </g>
            </g>
        </g>
    </g>
</svg>